<mxfile host="Electron" agent="Mozilla/5.0 (Windows NT 10.0; Win64; x64) AppleWebKit/537.36 (KHTML, like Gecko) draw.io/27.0.9 Chrome/134.0.6998.205 Electron/35.4.0 Safari/537.36" version="27.0.9">
  <diagram name="Página-1" id="eMY3JFSTNKI_8quiHVAR">
    <mxGraphModel dx="1615" dy="551" grid="1" gridSize="10" guides="1" tooltips="1" connect="1" arrows="1" fold="1" page="1" pageScale="1" pageWidth="827" pageHeight="1169" math="0" shadow="0">
      <root>
        <mxCell id="0" />
        <mxCell id="1" parent="0" />
        <mxCell id="-Uw2c5I53KvrM1k6raG5-1" value="&lt;div style=&quot;line-height: 100%;&quot;&gt;&lt;div style=&quot;line-height: 100%;&quot;&gt;Ejercicio 36: Red social&lt;/div&gt;&lt;div style=&quot;line-height: 100%;&quot;&gt;&lt;br&gt;&lt;/div&gt;&lt;div style=&quot;line-height: 100%;&quot;&gt;&lt;font style=&quot;color: rgb(102, 255, 102);&quot;&gt;Los usuarios tienen un nombre real, su Nick (que es único), una clave de acceso y una cuenta de correo&lt;/font&gt;&lt;/div&gt;&lt;div style=&quot;line-height: 100%;&quot;&gt;&lt;font style=&quot;color: rgb(102, 255, 102);&quot;&gt;electrónico.&lt;/font&gt; &lt;font style=&quot;color: rgb(0, 204, 0);&quot;&gt;Los usuarios pueden escribir comentarios, los cuales están formados por un texto y la fecha de&lt;/font&gt;&lt;/div&gt;&lt;div style=&quot;line-height: 100%;&quot;&gt;&lt;font style=&quot;color: rgb(0, 204, 0);&quot;&gt;creación, además de un id único que le asigna el sistema automáticamente.&lt;/font&gt;&lt;font style=&quot;color: rgb(102, 255, 102);&quot;&gt; Además, los usuarios pueden&lt;/font&gt;&lt;/div&gt;&lt;div style=&quot;line-height: 100%;&quot;&gt;&lt;font style=&quot;color: rgb(102, 255, 102);&quot;&gt;aparecer en fotografías&lt;/font&gt;. &lt;font style=&quot;color: rgb(0, 204, 0);&quot;&gt;Una fotografía tiene un nombre de archivo y una descripción opcional, además, al&lt;/font&gt;&lt;/div&gt;&lt;div style=&quot;line-height: 100%;&quot;&gt;&lt;font style=&quot;color: rgb(0, 204, 0);&quot;&gt;igual que ocurre con los comentarios el sistema le asignará a cada imagen un identificador único en el sistema.&lt;/font&gt;&lt;/div&gt;&lt;div style=&quot;line-height: 100%;&quot;&gt;Un usuario podrá aparecer en varias fotografías, pudiendo aparecer varios usuarios en cada de ellas&lt;/div&gt;&lt;/div&gt;" style="text;html=1;align=left;verticalAlign=middle;whiteSpace=wrap;rounded=0;" vertex="1" parent="1">
          <mxGeometry x="50" y="130" width="630" height="130" as="geometry" />
        </mxCell>
        <mxCell id="-Uw2c5I53KvrM1k6raG5-2" value="usuario" style="whiteSpace=wrap;html=1;align=center;fillColor=#f0a30a;strokeColor=#BD7000;fontColor=#000000;" vertex="1" parent="1">
          <mxGeometry x="80" y="350" width="70" height="40" as="geometry" />
        </mxCell>
        <mxCell id="-Uw2c5I53KvrM1k6raG5-3" value="comentario" style="whiteSpace=wrap;html=1;align=center;fillColor=#f0a30a;strokeColor=#BD7000;fontColor=#000000;" vertex="1" parent="1">
          <mxGeometry x="325" y="350" width="80" height="40" as="geometry" />
        </mxCell>
        <mxCell id="-Uw2c5I53KvrM1k6raG5-4" value="fotografia" style="whiteSpace=wrap;html=1;align=center;fillColor=#f0a30a;strokeColor=#BD7000;fontColor=#000000;" vertex="1" parent="1">
          <mxGeometry x="72.5" y="510" width="85" height="40" as="geometry" />
        </mxCell>
        <mxCell id="-Uw2c5I53KvrM1k6raG5-5" value="escribe" style="shape=rhombus;perimeter=rhombusPerimeter;whiteSpace=wrap;html=1;align=center;fillColor=#76608a;fontColor=#ffffff;strokeColor=#432D57;" vertex="1" parent="1">
          <mxGeometry x="200" y="350" width="70" height="40" as="geometry" />
        </mxCell>
        <mxCell id="-Uw2c5I53KvrM1k6raG5-6" value="" style="endArrow=none;html=1;rounded=0;exitX=0;exitY=0.5;exitDx=0;exitDy=0;entryX=1;entryY=0.5;entryDx=0;entryDy=0;" edge="1" source="-Uw2c5I53KvrM1k6raG5-5" parent="1" target="-Uw2c5I53KvrM1k6raG5-2">
          <mxGeometry relative="1" as="geometry">
            <mxPoint x="197" y="420" as="sourcePoint" />
            <mxPoint x="150" y="450" as="targetPoint" />
          </mxGeometry>
        </mxCell>
        <mxCell id="-Uw2c5I53KvrM1k6raG5-7" value="(1,N)" style="resizable=0;html=1;whiteSpace=wrap;align=right;verticalAlign=bottom;" connectable="0" vertex="1" parent="-Uw2c5I53KvrM1k6raG5-6">
          <mxGeometry x="1" relative="1" as="geometry">
            <mxPoint x="34" as="offset" />
          </mxGeometry>
        </mxCell>
        <mxCell id="-Uw2c5I53KvrM1k6raG5-8" value="" style="endArrow=none;html=1;rounded=0;exitX=1;exitY=0.5;exitDx=0;exitDy=0;entryX=0;entryY=0.5;entryDx=0;entryDy=0;" edge="1" source="-Uw2c5I53KvrM1k6raG5-5" parent="1" target="-Uw2c5I53KvrM1k6raG5-3">
          <mxGeometry relative="1" as="geometry">
            <mxPoint x="197" y="420" as="sourcePoint" />
            <mxPoint x="370" y="450" as="targetPoint" />
          </mxGeometry>
        </mxCell>
        <mxCell id="-Uw2c5I53KvrM1k6raG5-9" value="(1,N)" style="resizable=0;html=1;whiteSpace=wrap;align=right;verticalAlign=bottom;" connectable="0" vertex="1" parent="-Uw2c5I53KvrM1k6raG5-8">
          <mxGeometry x="1" relative="1" as="geometry">
            <mxPoint as="offset" />
          </mxGeometry>
        </mxCell>
        <mxCell id="-Uw2c5I53KvrM1k6raG5-10" value="aparece" style="shape=rhombus;perimeter=rhombusPerimeter;whiteSpace=wrap;html=1;align=center;fillColor=#76608a;fontColor=#ffffff;strokeColor=#432D57;" vertex="1" parent="1">
          <mxGeometry x="80" y="430" width="70" height="40" as="geometry" />
        </mxCell>
        <mxCell id="-Uw2c5I53KvrM1k6raG5-11" value="" style="endArrow=none;html=1;rounded=0;exitX=0.5;exitY=0;exitDx=0;exitDy=0;entryX=0.5;entryY=1;entryDx=0;entryDy=0;" edge="1" source="-Uw2c5I53KvrM1k6raG5-10" parent="1" target="-Uw2c5I53KvrM1k6raG5-2">
          <mxGeometry relative="1" as="geometry">
            <mxPoint x="47" y="420" as="sourcePoint" />
            <mxPoint y="450" as="targetPoint" />
          </mxGeometry>
        </mxCell>
        <mxCell id="-Uw2c5I53KvrM1k6raG5-12" value="(1,N)" style="resizable=0;html=1;whiteSpace=wrap;align=right;verticalAlign=bottom;" connectable="0" vertex="1" parent="-Uw2c5I53KvrM1k6raG5-11">
          <mxGeometry x="1" relative="1" as="geometry">
            <mxPoint x="35" y="20" as="offset" />
          </mxGeometry>
        </mxCell>
        <mxCell id="-Uw2c5I53KvrM1k6raG5-13" value="" style="endArrow=none;html=1;rounded=0;exitX=0.5;exitY=0;exitDx=0;exitDy=0;entryX=0.5;entryY=1;entryDx=0;entryDy=0;" edge="1" source="-Uw2c5I53KvrM1k6raG5-4" parent="1" target="-Uw2c5I53KvrM1k6raG5-10">
          <mxGeometry relative="1" as="geometry">
            <mxPoint x="47" y="420" as="sourcePoint" />
            <mxPoint x="220" y="450" as="targetPoint" />
          </mxGeometry>
        </mxCell>
        <mxCell id="-Uw2c5I53KvrM1k6raG5-14" value="(1,M)" style="resizable=0;html=1;whiteSpace=wrap;align=right;verticalAlign=bottom;" connectable="0" vertex="1" parent="-Uw2c5I53KvrM1k6raG5-13">
          <mxGeometry x="1" relative="1" as="geometry">
            <mxPoint x="35" y="40" as="offset" />
          </mxGeometry>
        </mxCell>
        <mxCell id="-Uw2c5I53KvrM1k6raG5-15" value="" style="endArrow=none;html=1;rounded=0;exitX=0.5;exitY=0;exitDx=0;exitDy=0;" edge="1" target="-Uw2c5I53KvrM1k6raG5-16" parent="1" source="-Uw2c5I53KvrM1k6raG5-2">
          <mxGeometry relative="1" as="geometry">
            <mxPoint x="65" y="285" as="sourcePoint" />
            <mxPoint x="125" y="285" as="targetPoint" />
          </mxGeometry>
        </mxCell>
        <mxCell id="-Uw2c5I53KvrM1k6raG5-16" value="&lt;u&gt;nick&lt;/u&gt;" style="ellipse;whiteSpace=wrap;html=1;align=center;" vertex="1" parent="1">
          <mxGeometry x="90" y="260" width="50" height="30" as="geometry" />
        </mxCell>
        <mxCell id="-Uw2c5I53KvrM1k6raG5-19" value="" style="endArrow=none;html=1;rounded=0;exitX=0.75;exitY=0;exitDx=0;exitDy=0;" edge="1" target="-Uw2c5I53KvrM1k6raG5-20" parent="1" source="-Uw2c5I53KvrM1k6raG5-2">
          <mxGeometry relative="1" as="geometry">
            <mxPoint x="130" y="305" as="sourcePoint" />
            <mxPoint x="190" y="305" as="targetPoint" />
          </mxGeometry>
        </mxCell>
        <mxCell id="-Uw2c5I53KvrM1k6raG5-20" value="nombre" style="ellipse;whiteSpace=wrap;html=1;align=center;" vertex="1" parent="1">
          <mxGeometry x="140" y="290" width="50" height="30" as="geometry" />
        </mxCell>
        <mxCell id="-Uw2c5I53KvrM1k6raG5-21" value="" style="endArrow=none;html=1;rounded=0;exitX=0.25;exitY=0;exitDx=0;exitDy=0;" edge="1" target="-Uw2c5I53KvrM1k6raG5-22" parent="1" source="-Uw2c5I53KvrM1k6raG5-2">
          <mxGeometry relative="1" as="geometry">
            <mxPoint x="-5" y="285" as="sourcePoint" />
            <mxPoint x="55" y="285" as="targetPoint" />
          </mxGeometry>
        </mxCell>
        <mxCell id="-Uw2c5I53KvrM1k6raG5-22" value="correo" style="ellipse;whiteSpace=wrap;html=1;align=center;" vertex="1" parent="1">
          <mxGeometry x="40" y="290" width="50" height="30" as="geometry" />
        </mxCell>
        <mxCell id="-Uw2c5I53KvrM1k6raG5-23" value="" style="endArrow=none;html=1;rounded=0;exitX=0;exitY=0.25;exitDx=0;exitDy=0;" edge="1" target="-Uw2c5I53KvrM1k6raG5-24" parent="1" source="-Uw2c5I53KvrM1k6raG5-2">
          <mxGeometry relative="1" as="geometry">
            <mxPoint x="-30" y="365" as="sourcePoint" />
            <mxPoint x="30" y="365" as="targetPoint" />
          </mxGeometry>
        </mxCell>
        <mxCell id="-Uw2c5I53KvrM1k6raG5-24" value="claveAcceso" style="ellipse;whiteSpace=wrap;html=1;align=center;" vertex="1" parent="1">
          <mxGeometry x="-30" y="340" width="85" height="30" as="geometry" />
        </mxCell>
        <mxCell id="-Uw2c5I53KvrM1k6raG5-25" value="" style="endArrow=none;html=1;rounded=0;exitX=0.5;exitY=0;exitDx=0;exitDy=0;" edge="1" target="-Uw2c5I53KvrM1k6raG5-26" parent="1" source="-Uw2c5I53KvrM1k6raG5-3">
          <mxGeometry relative="1" as="geometry">
            <mxPoint x="310" y="295" as="sourcePoint" />
            <mxPoint x="370" y="295" as="targetPoint" />
          </mxGeometry>
        </mxCell>
        <mxCell id="-Uw2c5I53KvrM1k6raG5-26" value="&lt;u&gt;id&lt;/u&gt;" style="ellipse;whiteSpace=wrap;html=1;align=center;" vertex="1" parent="1">
          <mxGeometry x="340" y="300" width="50" height="30" as="geometry" />
        </mxCell>
        <mxCell id="-Uw2c5I53KvrM1k6raG5-27" value="" style="endArrow=none;html=1;rounded=0;exitX=0.75;exitY=0;exitDx=0;exitDy=0;" edge="1" target="-Uw2c5I53KvrM1k6raG5-28" parent="1" source="-Uw2c5I53KvrM1k6raG5-3">
          <mxGeometry relative="1" as="geometry">
            <mxPoint x="414" y="325" as="sourcePoint" />
            <mxPoint x="474" y="325" as="targetPoint" />
          </mxGeometry>
        </mxCell>
        <mxCell id="-Uw2c5I53KvrM1k6raG5-28" value="texto" style="ellipse;whiteSpace=wrap;html=1;align=center;" vertex="1" parent="1">
          <mxGeometry x="400" y="300" width="50" height="30" as="geometry" />
        </mxCell>
        <mxCell id="-Uw2c5I53KvrM1k6raG5-29" value="" style="endArrow=none;html=1;rounded=0;exitX=1;exitY=0.25;exitDx=0;exitDy=0;" edge="1" target="-Uw2c5I53KvrM1k6raG5-30" parent="1" source="-Uw2c5I53KvrM1k6raG5-3">
          <mxGeometry relative="1" as="geometry">
            <mxPoint x="430" y="365" as="sourcePoint" />
            <mxPoint x="490" y="365" as="targetPoint" />
          </mxGeometry>
        </mxCell>
        <mxCell id="-Uw2c5I53KvrM1k6raG5-30" value="fechaCrea" style="ellipse;whiteSpace=wrap;html=1;align=center;" vertex="1" parent="1">
          <mxGeometry x="414" y="330" width="66" height="30" as="geometry" />
        </mxCell>
        <mxCell id="-Uw2c5I53KvrM1k6raG5-31" value="" style="endArrow=none;html=1;rounded=0;exitX=0.5;exitY=1;exitDx=0;exitDy=0;" edge="1" target="-Uw2c5I53KvrM1k6raG5-32" parent="1" source="-Uw2c5I53KvrM1k6raG5-4">
          <mxGeometry relative="1" as="geometry">
            <mxPoint x="50" y="645" as="sourcePoint" />
            <mxPoint x="110" y="645" as="targetPoint" />
          </mxGeometry>
        </mxCell>
        <mxCell id="-Uw2c5I53KvrM1k6raG5-32" value="&lt;u&gt;id&lt;/u&gt;" style="ellipse;whiteSpace=wrap;html=1;align=center;" vertex="1" parent="1">
          <mxGeometry x="90" y="590" width="50" height="30" as="geometry" />
        </mxCell>
        <mxCell id="-Uw2c5I53KvrM1k6raG5-33" value="" style="endArrow=none;html=1;rounded=0;exitX=0.25;exitY=1;exitDx=0;exitDy=0;" edge="1" target="-Uw2c5I53KvrM1k6raG5-34" parent="1" source="-Uw2c5I53KvrM1k6raG5-4">
          <mxGeometry relative="1" as="geometry">
            <mxPoint x="-50" y="595" as="sourcePoint" />
            <mxPoint x="10" y="595" as="targetPoint" />
          </mxGeometry>
        </mxCell>
        <mxCell id="-Uw2c5I53KvrM1k6raG5-34" value="nombre" style="ellipse;whiteSpace=wrap;html=1;align=center;" vertex="1" parent="1">
          <mxGeometry x="30" y="585" width="50" height="30" as="geometry" />
        </mxCell>
        <mxCell id="-Uw2c5I53KvrM1k6raG5-35" value="" style="endArrow=none;html=1;rounded=0;exitX=0.75;exitY=1;exitDx=0;exitDy=0;" edge="1" target="-Uw2c5I53KvrM1k6raG5-36" parent="1" source="-Uw2c5I53KvrM1k6raG5-4">
          <mxGeometry relative="1" as="geometry">
            <mxPoint x="158" y="585" as="sourcePoint" />
            <mxPoint x="218" y="585" as="targetPoint" />
          </mxGeometry>
        </mxCell>
        <mxCell id="-Uw2c5I53KvrM1k6raG5-36" value="descripcion" style="ellipse;whiteSpace=wrap;html=1;align=center;" vertex="1" parent="1">
          <mxGeometry x="150" y="585" width="77" height="30" as="geometry" />
        </mxCell>
      </root>
    </mxGraphModel>
  </diagram>
</mxfile>
